<svg version="1.1" id="Layer_1" xmlns="http://www.w3.org/2000/svg" xmlns:xlink="http://www.w3.org/1999/xlink" x="0px" y="0px" viewBox="0 0 581.2 145" style="enable-background:new 0 0 581.2 145;" xml:space="preserve">
 <style type="text/css">
  .st0{fill:#8DBCDA;}
	.st1{fill:#62AC5E;}
	.st2{fill:#455560;}
 </style>
 <g id="logo_1_">
  <path id="logo-blue_1_" class="st0" d="M0,0v43.8h219.6V0H0L0,0z">
  </path>
  <path id="logo-green_1_" class="st1" d="M0,50.3v43.8h219.6V50.3H0L0,50.3z">
  </path>
  <path id="logo-grey_1_" class="st2" d="M0,101.2V145h219.6v-43.8H0L0,101.2z">
  </path>
  <path id="logo-dai_1_" class="st2" d="M295.9,32v79.3h24c3.9,0,7.6-0.6,11.3-1.9c3.7-1.3,6.9-3.4,9.8-6.4s5.1-6.9,6.8-11.7
		c1.7-4.8,2.6-10.7,2.6-17.6c0-6.3-0.6-12.1-1.8-17.2c-1.2-5.1-3.2-9.5-5.9-13.1c-2.7-3.6-6.4-6.4-10.9-8.4
		c-4.5-1.9-10.1-2.9-16.7-2.9H295.9z M258,144.4V1.2h63.5c9.5,0,18.3,1.5,26.5,4.4c8.2,2.9,15.2,7.4,21.2,13.2
		c6,5.9,10.6,13.2,14,22.1c3.4,8.8,5,19.2,5,31.1c0,10.4-1.4,20.1-4.1,28.9s-6.9,16.4-12.5,22.9c-5.6,6.4-12.5,11.5-20.8,15.1
		s-18.1,5.5-29.4,5.5H258z M439.7,90.6H477l-18.1-52.7h-0.4L439.7,90.6z M422.9,43.4l16-42.2h39c0,0,8.2,22,16.3,44.1l36.6,99.1H492
		l-9.3-26h-51.2l-8.7,26h-38.1L422.9,43.4z M543.9,144.4V1.2h37.3v143.2H543.9z">
  </path>
 </g>
</svg>